<svg width="28" height="28" viewBox="0 0 28 28" fill="none" xmlns="http://www.w3.org/2000/svg">
    <g clip-path="url(#clip0_14_962)">
        <path
            d="M22.27 17.1851C20.35 17.1851 18.68 18.2251 17.75 19.7551L10.21 15.9851C10.46 15.3751 10.6 14.7051 10.6 14.0051C10.6 13.3051 10.46 12.6351 10.21 12.0251L17.75 8.25509C18.68 9.78509 20.35 10.8251 22.27 10.8251C25.19 10.8251 27.57 8.44509 27.57 5.52509C27.57 2.60509 25.19 0.215088 22.27 0.215088C19.35 0.215088 16.97 2.59509 16.97 5.51509C16.97 5.76509 17.01 5.99509 17.04 6.23509L9.03 10.2351C8.07 9.28509 6.75 8.69509 5.3 8.69509C2.38 8.69509 0 11.0751 0 13.9951C0 16.9151 2.38 19.2951 5.3 19.2951C6.75 19.2951 8.07 18.7051 9.03 17.7551L17.04 21.7551C17.01 21.9951 16.97 22.2251 16.97 22.4751C16.97 25.3951 19.35 27.7751 22.27 27.7751C25.19 27.7751 27.57 25.3951 27.57 22.4751C27.57 19.5551 25.19 17.1751 22.27 17.1751V17.1851ZM22.27 2.34509C24.02 2.34509 25.45 3.77509 25.45 5.52509C25.45 7.27509 24.02 8.70509 22.27 8.70509C20.52 8.70509 19.09 7.27509 19.09 5.52509C19.09 3.77509 20.52 2.34509 22.27 2.34509ZM5.3 17.1851C3.55 17.1851 2.12 15.7551 2.12 14.0051C2.12 12.2551 3.55 10.8251 5.3 10.8251C7.05 10.8251 8.48 12.2551 8.48 14.0051C8.48 15.7551 7.05 17.1851 5.3 17.1851ZM22.27 25.6651C20.52 25.6651 19.09 24.2351 19.09 22.4851C19.09 20.7351 20.52 19.3051 22.27 19.3051C24.02 19.3051 25.45 20.7351 25.45 22.4851C25.45 24.2351 24.02 25.6651 22.27 25.6651Z"
            fill="currentColor" />
    </g>
    <defs>
        <clipPath id="clip0_14_962">
            <rect width="27.57" height="27.57" fill="white" transform="translate(0 0.215088)" />
        </clipPath>
    </defs>
</svg>