<svg width="28" height="27" viewBox="0 0 28 27" fill="none" xmlns="http://www.w3.org/2000/svg">
    <g id="Layer_1" clip-path="url(#clip0_9_149)">
        <path id="star"
            d="M20.6499 26.15C20.2399 26.15 19.8299 26.05 19.4499 25.85L13.9499 22.97C13.8499 22.92 13.7199 22.92 13.6199 22.97L8.12994 25.84C7.24994 26.3 6.20994 26.22 5.40994 25.64C4.60994 25.06 4.21994 24.1 4.38994 23.12L5.43994 17.04C5.45994 16.93 5.41994 16.81 5.33994 16.73L0.749943 12.3C0.0699432 11.64 -0.170057 10.67 0.119943 9.77C0.409943 8.87 1.17994 8.22 2.11994 8.08L8.45994 7.16C8.57994 7.14 8.67994 7.07 8.72994 6.97L11.4799 1.43C11.9199 0.55 12.7999 0 13.7899 0C14.7799 0 15.6599 0.55 16.0999 1.43L18.8499 6.97C18.8999 7.08 18.9999 7.15 19.1199 7.16L25.4599 8.08C26.3999 8.22 27.1699 8.86 27.4599 9.77C27.7499 10.67 27.5099 11.64 26.8299 12.31L22.2499 16.76C22.1699 16.84 22.1299 16.96 22.1499 17.07L23.1999 23.15C23.3699 24.12 22.9799 25.08 22.1799 25.66C21.7299 25.99 21.1999 26.16 20.6699 26.16L20.6499 26.15ZM13.7899 20.82C14.1799 20.82 14.5799 20.91 14.9399 21.1L20.4399 23.98C20.6599 24.1 20.8399 24.01 20.9199 23.94C20.9999 23.88 21.1399 23.74 21.0999 23.5L20.0499 17.41C19.9099 16.6 20.1799 15.78 20.7699 15.22L25.3499 10.78C25.4899 10.65 25.4599 10.5 25.4399 10.42C25.4199 10.34 25.3399 10.21 25.1499 10.18L18.8099 9.26C17.9999 9.14 17.3099 8.64 16.9399 7.91L14.1999 2.37C14.0899 2.15 13.8999 2.12 13.7899 2.12C13.6799 2.12 13.4899 2.15 13.3799 2.37L10.6299 7.91C10.2699 8.64 9.56994 9.14 8.76994 9.26L2.42994 10.18C2.23994 10.21 2.16994 10.34 2.13994 10.42C2.11994 10.5 2.08994 10.65 2.22994 10.78L6.80994 15.23C7.39994 15.8 7.65994 16.62 7.52994 17.42L6.47994 23.5C6.43994 23.74 6.57994 23.88 6.65994 23.94C6.74994 24 6.91994 24.09 7.13994 23.98L12.6299 21.11C12.9899 20.92 13.3899 20.83 13.7799 20.83L13.7899 20.82Z"
            fill="#C01A72" />
    </g>
    <defs>
        <clipPath id="clip0_9_149">
            <rect width="27.57" height="26.15" fill="white" />
        </clipPath>
    </defs>
</svg>