<svg width="28" height="27" viewBox="0 0 28 27" fill="none" xmlns="http://www.w3.org/2000/svg">
    <path
        d="M20.6499 26.15C20.2399 26.15 19.8299 26.05 19.4499 25.85L13.9499 22.97C13.8499 22.92 13.7199 22.92 13.6199 22.97L8.12994 25.84C7.24994 26.3 6.20994 26.22 5.40994 25.64C4.60994 25.06 4.21994 24.1 4.38994 23.12L5.43994 17.04C5.45994 16.93 5.41994 16.81 5.33994 16.73L0.749943 12.3C0.0699432 11.64 -0.170057 10.67 0.119943 9.77C0.409943 8.87 1.17994 8.22 2.11994 8.08L8.45994 7.16C8.57994 7.14 8.67994 7.07 8.72994 6.97L11.4799 1.43C11.9199 0.55 12.7999 0 13.7899 0C14.7799 0 15.6599 0.55 16.0999 1.43L18.8499 6.97C18.8999 7.08 18.9999 7.15 19.1199 7.16L25.4599 8.08C26.3999 8.22 27.1699 8.86 27.4599 9.77C27.7499 10.67 27.5099 11.64 26.8299 12.31L22.2499 16.76C22.1699 16.84 22.1299 16.96 22.1499 17.07L23.1999 23.15C23.3699 24.12 22.9799 25.08 22.1799 25.66C21.7299 25.99 21.1999 26.16 20.6699 26.16L20.6499 26.15Z"
        fill="#C01A72" />
</svg>