<svg width="28" height="28" viewBox="0 0 28 28" fill="none" xmlns="http://www.w3.org/2000/svg">
    <g id="Layer_1" clip-path="url(#clip0_9_108)">
        <path id="dislike"
            d="M0 3.18V13.08C0 14.83 1.43 16.26 3.18 16.26H7.36L10.37 25.39C10.74 26.38 11.5 27.1 12.46 27.41C12.79 27.52 13.14 27.57 13.48 27.57C14.12 27.57 14.76 27.38 15.31 27.01C16.79 26.02 17.67 24.38 17.67 22.6V19.08H22.13C24.81 19.08 26.13 18.04 26.76 17.16C27.68 15.88 27.82 14.09 27.16 12.1L24.33 3.62C23.7 1.71 22.83 0 19.3 0H3.18C1.43 0 0 1.43 0 3.18ZM8.13 14.14V2.12H19.3C21.5 2.12 21.81 2.79 22.32 4.3L25.15 12.78C25.58 14.08 25.54 15.23 25.04 15.93C24.42 16.79 23.12 16.97 22.13 16.97H16.61C16.02 16.97 15.55 17.44 15.55 18.03V22.61C15.55 23.68 15.02 24.67 14.13 25.26C13.83 25.46 13.46 25.51 13.11 25.4C12.76 25.29 12.49 25.03 12.36 24.69L9.13 14.88C8.99 14.45 8.58 14.15 8.12 14.15L8.13 14.14ZM2.12 3.18C2.12 2.6 2.6 2.12 3.18 2.12H6.01V14.14H3.18C2.6 14.14 2.12 13.66 2.12 13.08V3.18Z"
            fill="currentColor" />
    </g>
    <defs>
        <clipPath id="clip0_9_108">
            <rect width="27.57" height="27.57" fill="currentColor" />
        </clipPath>
    </defs>
</svg>